<svg width="27" height="26" viewBox="0 0 27 26" fill="none" xmlns="http://www.w3.org/2000/svg">
<path fill-rule="evenodd" clip-rule="evenodd" d="M15.3333 2.49265C15.3333 1.89765 15.8512 1.43099 16.4345 1.54813C21.999 2.66549 26.1854 7.50472 26.1854 13.3052C26.1854 19.9326 20.7203 25.3052 13.9786 25.3052C8.09751 25.3052 3.18779 21.2166 2.03022 15.7731C1.90594 15.1887 2.37345 14.6667 2.97095 14.6667H14.3333C14.8856 14.6667 15.3333 14.219 15.3333 13.6667V2.49265Z" fill="#435CE7"/>
<path fill-rule="evenodd" clip-rule="evenodd" d="M0.673007 11.191C0.690213 11.6984 1.12236 12.0789 1.63003 12.0789H11.8181C12.3704 12.0789 12.8181 11.6311 12.8181 11.0789V0.966025C12.8181 0.460934 12.4413 0.0300875 11.9367 0.00932789C11.7867 0.00315762 11.6359 4.19617e-05 11.4843 4.19617e-05C5.50991 4.19617e-05 0.666687 4.84327 0.666687 10.8177C0.666687 10.9426 0.668805 11.0671 0.673007 11.191Z" fill="#435CE7"/>
</svg>
