<svg width="30" height="22" viewBox="0 0 30 22" fill="none" xmlns="http://www.w3.org/2000/svg">
<path d="M0.333344 2.33325C0.333344 1.22868 1.22877 0.333252 2.33334 0.333252H27.6667C28.7712 0.333252 29.6667 1.22868 29.6667 2.33325V19.7692C29.6667 20.8737 28.7712 21.7691 27.6667 21.7691H2.33335C1.22878 21.7691 0.333344 20.8737 0.333344 19.7691V2.33325Z" fill="#435CE7"/>
<path d="M7.10256 14.9998L12.1789 10.4871L14.9994 13.8717L21.7694 7.10253" stroke="white" stroke-width="2" stroke-linecap="round" stroke-linejoin="round"/>
<path d="M20.7692 11.6152C20.7692 12.1675 21.2169 12.6152 21.7692 12.6152C22.3215 12.6152 22.7692 12.1675 22.7692 11.6152L20.7692 11.6152ZM21.7692 7.10241L22.7692 7.10241C22.7692 6.55013 22.3215 6.10241 21.7692 6.10241L21.7692 7.10241ZM17.2564 6.10241C16.7041 6.10241 16.2564 6.55013 16.2564 7.10241C16.2564 7.6547 16.7041 8.10241 17.2564 8.10241L17.2564 6.10241ZM22.7692 11.6152L22.7692 7.10241L20.7692 7.10241L20.7692 11.6152L22.7692 11.6152ZM21.7692 6.10241L17.2564 6.10241L17.2564 8.10241L21.7692 8.10241L21.7692 6.10241Z" fill="white"/>
</svg>
